<svg width="20" height="20" viewBox="0 0 20 20" fill="none" xmlns="http://www.w3.org/2000/svg">
<path d="M16 7.33333H14.6666V5.66667C14.6666 3.08933 12.5773 1 9.99998 1C7.42265 1 5.33331 3.08933 5.33331 5.66667V7.33333H3.99998C3.07931 7.33333 2.33331 8.07933 2.33331 9V17C2.33331 17.9207 3.07931 18.6667 3.99998 18.6667H16C16.9206 18.6667 17.6666 17.9207 17.6666 17V9C17.6666 8.07933 16.9206 7.33333 16 7.33333ZM11.3333 16H8.66665L9.21731 13.7967C8.69365 13.5157 8.33331 12.9693 8.33331 12.3333C8.33331 11.4127 9.07931 10.6667 9.99998 10.6667C10.9206 10.6667 11.6666 11.4127 11.6666 12.3333C11.6666 12.9693 11.3063 13.5157 10.7826 13.7967L11.3333 16ZM13 7.33333H6.99998V5.66667C6.99998 4.00967 8.34298 2.66667 9.99998 2.66667C11.657 2.66667 13 4.00967 13 5.66667V7.33333Z" fill="black"/>
</svg>
