<svg width="20" height="20" viewBox="0 0 20 20" fill="none" xmlns="http://www.w3.org/2000/svg">
<path d="M11.5587 2C11.0564 2 10.5904 2.26133 10.3287 2.69033L6.33337 9.235V17.3333H14.007C15.4717 17.3333 16.7814 16.4213 17.289 15.0473L19.17 10.403C19.3604 9.93333 19.3874 9.40667 19.2347 8.90867C18.941 7.95133 18.008 7.33333 17.007 7.33333H13V3.44133C13 2.64533 12.3547 2 11.5587 2Z" fill="black"/>
<path d="M2.33333 9H5V17.3333H2.33333C1.597 17.3333 1 16.7363 1 16V10.3333C1 9.597 1.597 9 2.33333 9Z" fill="black"/>
</svg>
